{
  "accessors": [
    {
      "bufferView": 2,
      "componentType": 5126,
      "count": 32888,
      "max": [
        13.065130233764648,
        22.031557083129883,
        10.2063627243042
      ],
      "min": [
        -10.581491470336914,
        1.4962979555130005,
        -14.640908241271973
      ],
      "type": "VEC3"
    },
    {
      "bufferView": 2,
      "byteOffset": 394656,
      "componentType": 5126,
      "count": 32888,
      "max": [
        0.9998586177825928,
        0.9999998807907104,
        0.9998040199279785
      ],
      "min": [
        -0.999980628490448,
        -0.9999996423721313,
        -0.9999456405639648
      ],
      "type": "VEC3"
    },
    {
      "bufferView": 3,
      "componentType": 5126,
      "count": 32888,
      "max": [
        0.9999560713768005,
        0.9999839067459106,
        0.999931812286377,
        1.0
      ],
      "min": [
        -0.9998979568481445,
        -0.9999958276748657,
        -0.9998281002044678,
        -1.0
      ],
      "type": "VEC4"
    },
    {
      "bufferView": 1,
      "componentType": 5126,
      "count": 32888,
      "max": [
        0.9923949837684631,
        0.9965220093727112
      ],
      "min": [
        0.006095000077039003,
        0.003865000093355775
      ],
      "type": "VEC2"
    },
    {
      "bufferView": 0,
      "componentType": 5125,
      "count": 185718,
      "type": "SCALAR"
    }
  ],
  "asset": {
    "extras": {
      "author": "daguytoday (https://sketchfab.com/daguytoday)",
      "license": "CC-BY-4.0 (http://creativecommons.org/licenses/by/4.0/)",
      "source": "https://sketchfab.com/3d-models/painted-toy-train-model-aa1e3e6271b940599e35a3d3e434209d",
      "title": "Painted Toy Train Model"
    },
    "generator": "Sketchfab-14.21.0",
    "version": "2.0"
  },
  "bufferViews": [
    {
      "buffer": 0,
      "byteLength": 742872,
      "name": "floatBufferViews",
      "target": 34963
    },
    {
      "buffer": 0,
      "byteLength": 263104,
      "byteOffset": 742872,
      "byteStride": 8,
      "name": "floatBufferViews",
      "target": 34962
    },
    {
      "buffer": 0,
      "byteLength": 789312,
      "byteOffset": 1005976,
      "byteStride": 12,
      "name": "floatBufferViews",
      "target": 34962
    },
    {
      "buffer": 0,
      "byteLength": 526208,
      "byteOffset": 1795288,
      "byteStride": 16,
      "name": "floatBufferViews",
      "target": 34962
    }
  ],
  "buffers": [
    {
      "byteLength": 2321496,
      "uri": "scene.bin"
    }
  ],
  "images": [
    {
      "uri": "textures/TrainLP_baseColor.png"
    },
    {
      "uri": "textures/TrainLP_metallicRoughness.png"
    },
    {
      "uri": "textures/TrainLP_emissive.jpeg"
    },
    {
      "uri": "textures/TrainLP_normal.png"
    }
  ],
  "materials": [
    {
      "alphaMode": "BLEND",
      "doubleSided": true,
      "emissiveFactor": [
        1.0,
        1.0,
        1.0
      ],
      "emissiveTexture": {
        "index": 2
      },
      "name": "TrainLP",
      "normalTexture": {
        "index": 3
      },
      "occlusionTexture": {
        "index": 1
      },
      "pbrMetallicRoughness": {
        "baseColorTexture": {
          "index": 0
        },
        "metallicRoughnessTexture": {
          "index": 1
        }
      }
    }
  ],
  "meshes": [
    {
      "name": "defaultMaterial",
      "primitives": [
        {
          "attributes": {
            "NORMAL": 1,
            "POSITION": 0,
            "TANGENT": 2,
            "TEXCOORD_0": 3
          },
          "indices": 4,
          "material": 0,
          "mode": 4
        }
      ]
    }
  ],
  "nodes": [
    {
      "children": [
        1
      ],
      "matrix": [
        1.0,
        0.0,
        0.0,
        0.0,
        0.0,
        2.220446049250313e-16,
        -1.0,
        0.0,
        0.0,
        1.0,
        2.220446049250313e-16,
        0.0,
        0.0,
        0.0,
        0.0,
        1.0
      ],
      "name": "Sketchfab_model"
    },
    {
      "children": [
        2
      ],
      "matrix": [
        1.0,
        0.0,
        0.0,
        0.0,
        0.0,
        -4.371139006309477e-08,
        0.999999999999999,
        0.0,
        0.0,
        -0.999999999999999,
        -4.371139006309477e-08,
        0.0,
        0.0,
        0.0,
        0.0,
        1.0
      ],
      "name": "Collada visual scene group"
    },
    {
      "children": [
        3
      ],
      "name": "TrainLP"
    },
    {
      "mesh": 0,
      "name": "defaultMaterial"
    }
  ],
  "samplers": [
    {
      "magFilter": 9729,
      "minFilter": 9987,
      "wrapS": 10497,
      "wrapT": 10497
    }
  ],
  "scene": 0,
  "scenes": [
    {
      "name": "Sketchfab_Scene",
      "nodes": [
        0
      ]
    }
  ],
  "textures": [
    {
      "sampler": 0,
      "source": 0
    },
    {
      "sampler": 0,
      "source": 1
    },
    {
      "sampler": 0,
      "source": 2
    },
    {
      "sampler": 0,
      "source": 3
    }
  ]
}
